<?xml version="1.0" standalone="no"?>
<!DOCTYPE svg PUBLIC "-//W3C//DTD SVG 20010904//EN"
 "http://www.w3.org/TR/2001/REC-SVG-20010904/DTD/svg10.dtd">
<svg version="1.0" xmlns="http://www.w3.org/2000/svg"
 width="260.000000pt" height="260.000000pt" viewBox="0 0 260.000000 260.000000"
 preserveAspectRatio="xMidYMid meet">
<metadata>
Created by potrace 1.14, written by Peter Selinger 2001-2017
</metadata>
<g transform="translate(0.000000,260.000000) scale(0.100000,-0.100000)"
fill="#000000" stroke="none">
<path d="M990 2450 c0 -5 -16 -10 -35 -10 -59 0 -319 -30 -335 -39 -9 -5 -73
-17 -143 -26 -70 -10 -127 -21 -127 -25 0 -4 -26 -11 -57 -15 -96 -11 -103
-14 -103 -44 0 -15 -4 -31 -9 -37 -19 -18 -32 -473 -21 -712 6 -124 15 -231
19 -237 4 -5 13 -66 20 -135 8 -69 18 -130 23 -137 5 -7 8 -22 7 -35 -2 -13
-1 -27 3 -33 3 -5 11 -44 18 -85 7 -41 17 -81 22 -87 6 -7 8 -20 4 -28 -3 -8
-2 -15 3 -15 5 0 11 -17 15 -37 4 -28 18 -48 51 -78 25 -22 71 -64 103 -92 31
-29 60 -53 63 -53 4 0 12 7 19 15 7 8 18 15 24 15 6 0 28 18 49 40 20 22 40
40 43 40 6 0 130 108 231 200 l41 38 -36 28 c-42 34 -142 136 -142 146 0 4 -7
13 -15 21 -8 8 -28 42 -45 75 -188 371 -44 807 329 992 63 32 196 72 205 62 3
-3 6 42 6 99 l0 104 -44 48 -44 47 -71 0 c-41 0 -71 -4 -71 -10z"/>
<path d="M1433 2412 l-43 -47 0 -96 0 -96 79 -15 c278 -55 501 -273 566 -553
45 -191 5 -400 -106 -565 -44 -66 -127 -151 -180 -187 -22 -14 -39 -27 -39
-29 0 -7 246 -224 254 -224 3 0 23 -18 43 -40 21 -22 42 -40 47 -40 5 0 18 -7
28 -17 16 -14 20 -15 36 -1 9 8 28 24 41 34 13 10 52 47 88 80 49 47 65 70 70
98 3 20 10 36 15 36 5 0 6 5 3 10 -4 6 -2 16 3 23 5 7 15 48 22 92 7 44 16 85
19 90 3 6 4 19 2 29 -1 10 2 28 7 40 6 12 15 73 22 136 6 63 15 117 20 120 20
12 33 326 26 639 -3 174 -9 333 -12 353 l-6 37 -89 12 c-49 6 -89 15 -89 19 0
4 -57 15 -127 24 -71 9 -137 21 -148 26 -28 12 -239 40 -302 40 -29 0 -53 5
-53 10 0 6 -32 10 -77 10 l-78 -1 -42 -47z"/>
<path d="M1299 2066 c-2 -2 -30 -6 -61 -9 -213 -19 -429 -190 -504 -398 -56
-155 -48 -336 21 -486 13 -29 28 -58 34 -65 6 -7 30 -38 54 -68 70 -89 217
-183 322 -206 107 -23 216 -23 322 2 15 3 66 25 113 48 66 32 102 58 162 118
43 43 78 85 78 93 0 8 4 15 8 15 11 0 69 126 76 165 4 17 9 46 13 65 8 44 8
164 -1 210 -19 100 -69 209 -133 286 -33 41 -64 68 -158 139 -39 30 -173 74
-256 84 -98 13 -85 12 -90 7z m394 -323 l75 -77 -67 -67 c-82 -83 -462 -477
-496 -513 -17 -18 -30 -24 -39 -19 -16 9 -279 281 -284 293 -2 4 30 42 70 84
l72 76 76 -75 76 -76 64 68 c85 90 371 383 375 383 1 0 36 -35 78 -77z"/>
<path d="M1060 752 c-8 -3 -50 -36 -92 -75 -43 -38 -78 -66 -78 -63 0 4 -16
-9 -35 -29 -20 -19 -38 -35 -41 -35 -8 0 -114 -94 -114 -102 0 -6 84 -71 140
-108 12 -8 41 -30 64 -47 22 -18 46 -33 53 -33 6 0 18 -6 25 -13 21 -20 114
-75 238 -140 72 -38 77 -39 120 -28 24 7 47 15 50 19 6 8 38 28 95 57 22 12
58 32 80 46 22 14 48 28 58 32 9 3 17 11 17 17 0 5 6 10 13 10 11 0 84 52 118
85 9 8 21 15 27 15 7 0 17 9 24 20 7 11 17 20 23 20 5 0 23 12 39 26 l28 25
-53 49 c-30 27 -57 49 -61 50 -4 0 -23 16 -43 35 -19 20 -35 33 -35 29 0 -3
-36 26 -79 65 -61 56 -85 71 -103 67 -13 -2 -45 -10 -73 -16 -83 -19 -278 -13
-325 10 -25 12 -64 18 -80 12z"/>
</g>
</svg>
